<?xml version="1.0" encoding="UTF-8"?>
<svg xmlns="http://www.w3.org/2000/svg" viewBox="0 0 787.96 792.2">
  <defs>
    <style>
      .cls-1 {
        fill: #fff;
        stroke: #231f20;
        stroke-miterlimit: 10;
      }
    </style>
  </defs>
  <g id="nagoya">
    <polygon class="cls-1" points="421.25 586.02 439.91 559.63 434.06 528.81 397.05 518.44 367.56 544.98 362.37 564.2 369.69 564.2 373.05 573.43 378.23 573.43 385.56 579.46 391.57 579.78 383.11 591.36 421.25 586.02"/>
  </g>
  <g id="tokyo_1" data-name="tokyo 1">
    <path class="cls-1" d="m495.99,572.74l8.24-30.5-5.8-4.58-10.07,13.12-1.83,6.1s-7.02-1.22-7.93-1.07-16.47-24.25-16.47-24.25l9.15-18,62.1,18.15-17,9.31.25,14.95-1.88,9.51-8.69,2.39-5.95,3.36-4.12,1.51Z"/>
  </g>
  <g id="tokyo_2" data-name="tokyo 2">
    <polygon class="cls-1" points="468.54 512.03 482.57 494.95 518.42 497.95 535.05 530.95 468.54 512.03"/>
  </g>
  <g id="hakuba_nagano" data-name="hakuba nagano">
    <polygon class="cls-1" points="394.31 478.38 386.39 505.52 437.63 520.55 442.83 448.85 394.31 478.38"/>
  </g>
  <g id="kanazawa">
    <polygon class="cls-1" points="364.81 472.98 384.64 478.17 372.13 518.44 337.35 510.51 364.81 472.98"/>
  </g>
  <g id="nara">
    <polygon class="cls-1" points="305.62 604.48 298 614.49 320.27 647.49 341.32 614.49 366.63 604.58 359.32 595.93 305.62 604.48"/>
  </g>
  <g id="osaka">
    <polygon class="cls-1" points="347.42 589.83 306.23 600.81 308.67 592.58 302.62 588.25 276.34 571.22 347.42 589.83"/>
  </g>
  <g id="kyoto">
    <polygon class="cls-1" points="351.39 586.02 276.34 569.7 320.57 560.85 354.44 571.22 351.39 586.02"/>
    <polygon class="cls-1" points="124.76 771 121.1 765.2 124.76 761.54 131.78 764.9 134.22 764.59 141.23 741.1 141.23 727.68 150.08 705.71 161.06 686.8 158.93 677.34 156.18 664.53 143.37 664.53 141.08 660.86 147.64 656.59 150.39 650.19 148.25 644.09 142.45 644.09 136.96 647.14 124.76 645.31 121.1 639.51 121.1 626.7 114.08 629.75 105.54 628.83 101.27 631.58 95.47 636.76 94.25 641.34 82.96 645.31 82.96 650.8 78.69 652.63 72.89 649.58 70.45 661.47 53.37 659.03 49.71 667.88 57.64 666.66 63.13 669.71 61.61 683.44 67.4 690.76 66.79 700.83 75.64 693.2 82.66 690.46 81.13 698.85 87.54 698.85 93.64 694.73 89.37 683.44 84.79 682.22 84.49 673.37 95.47 674.59 102.49 690.46 94.25 697.47 105.39 698.85 89.98 727.68 84.79 727.37 85.71 738.05 86.32 748.12 90.89 755.75 85.1 771 100.35 776.19 105.39 772.22 101.27 753.61 109.81 765.51 107.06 779.54 105.39 785.03 124.76 771"/>
    <polygon class="cls-1" points="79 721.58 85.71 713.95 85.71 705.86 79 703.88 75.95 715.17 79 721.58"/>
    <polygon class="cls-1" points="89.06 710.59 93.64 710.59 96.08 705.86 90.28 705.86 89.06 710.59"/>
    <polygon class="cls-1" points="162.89 659.03 189.74 641.34 200.42 618.76 209.27 627.92 227.57 626.7 230.32 613.27 243.44 605.95 255.33 605.95 264.79 612.97 269.98 612.97 272.42 623.34 277 632.49 259 651.1 254.42 666.36 240.39 650.8 224.52 654.15 216.59 661.47 210.49 676.12 204.69 685.58 205.61 694.12 188.83 691.68 191.27 683.14 182.42 683.75 180.59 667.27 183.03 664.22 176.62 657.51 162.89 659.03"/>
    <polygon class="cls-1" points="278.83 614.49 288.59 610.83 284.93 600.46 288.59 594.66 277 604.58 278.83 614.49"/>
    <polygon class="cls-1" points="167.17 634.32 148.25 622.73 120.18 624.86 113.47 622.73 115.61 602.9 144.89 594.66 183.95 558.36 193.4 543.41 215.98 538.22 219.95 547.07 296.83 532.12 298.96 542.19 317.57 543.41 333.74 532.12 330.39 515.95 362.42 472.93 362.42 445.78 386.22 436.02 386.22 445.48 372.79 456.15 375.84 472.93 386.22 475.37 437.47 446.09 457 413.14 475 402.76 484.45 369.51 498.49 341.14 502.76 310.32 487.5 310.32 486.89 303.31 494.83 303.31 502.76 283.78 495.13 271.27 508.55 261.2 512.83 244.42 512.83 236.49 526.25 238.63 529.61 257.24 533.57 257.24 536.01 249.31 547 254.19 552.49 240.15 533.88 243.2 536.01 222.46 553.71 229.78 562.55 226.42 560.72 272.8 581.47 299.03 585.13 333.51 571.4 364.63 561.94 381.71 566.52 393.31 549.13 391.48 539.98 410.7 545.16 442.73 540.28 466.22 523.81 503.44 536.62 532.42 518.32 543.41 517.1 566.59 492.39 577.58 500.11 545.59 498.13 541.93 487.45 564.66 474.69 556.68 460.35 560.19 462.79 580.02 453.33 591.92 447.23 576.97 450.89 568.12 442.96 564.76 435.03 571.78 423.74 589.78 374.01 594.66 386.83 581.85 370.42 578.92 361.5 566.9 352.35 590.09 368.83 600.76 366.69 608.09 342.89 617.24 325.2 650.03 313 650.03 300.18 636.15 294.69 610.22 305.98 594.66 299.22 591.36 282.79 589.17 262.35 584.59 241.61 598.02 213.54 605.95 188.83 611.14 172.96 608.09 167.17 634.32"/>
    <path class="cls-1" d="m545.77,211.78c.31.31,6.1-4.88,6.1-4.88l-20.14-18-15.56-4.27v-15.56l17.85-1.83,7.17,12.51,33.86-17.08,61.02,36.61,29.9-50.95,39.05-4.58,41.49-20.44-22.88,2.44-5.8-24.1,9.46-26.85-27.76,17.08-62.85-24.1-54.61-60.41-14.03,8.24,1.83,19.83,6.1,27.15-14.95,43.63-12.51,27.76-28.68-11.29-5.49,11.59,5.19,6.41-8.85,14.34-9.76.61-13.12,17.69,15.86,21.05-4.58,21.66,6.71,10.98,14.64-12.2,9.46-9.46,15.86,6.41Z"/>
    <polygon class="cls-1" points="734.93 105.31 728.52 97.68 759.64 60.15 779.77 64.73 776.42 72.05 734.93 105.31"/>
    <polygon class="cls-1" points="426.79 421.07 437.78 414.66 439.91 407.64 436.55 406.42 436.25 396.66 426.79 400.93 424.35 411.31 428.01 411.92 426.79 421.07"/>
    <polygon class="cls-1" points="42.39 680.39 25.3 702.36 14.32 699.31 19.2 691.37 35.67 677.03 40.25 669.41 42.39 680.39"/>
  </g>
</svg>